<?xml version="1.0" encoding="UTF-8"?>
<!DOCTYPE svg PUBLIC "-//W3C//DTD SVG 1.1//EN" "http://www.w3.org/Graphics/SVG/1.1/DTD/svg11.dtd">
<!-- Creator: CorelDRAW 2019 (64-Bit) -->
<svg xmlns="http://www.w3.org/2000/svg" xml:space="preserve" width="282.686mm" height="282.686mm" version="1.1" style="shape-rendering:geometricPrecision; text-rendering:geometricPrecision; image-rendering:optimizeQuality; fill-rule:evenodd; clip-rule:evenodd"
viewBox="0 0 44570.34 44570.34"
 xmlns:xlink="http://www.w3.org/1999/xlink">
 <defs>
  <style type="text/css">
   <![CDATA[
    .str0 {stroke:#7D212B;stroke-width:289.23;stroke-linecap:round;stroke-linejoin:round;stroke-miterlimit:22.9256}
    .str1 {stroke:#7A4B34;stroke-width:216.93;stroke-linecap:round;stroke-linejoin:round;stroke-miterlimit:22.9256}
    .fil3 {fill:none}
    .fil0 {fill:#2B2A29}
    .fil2 {fill:#F7B512}
    .fil1 {fill:#CF142B}
   ]]>
  </style>
 </defs>
 <g id="Layer_x0020_1">
  <metadata id="CorelCorpID_0Corel-Layer"/>
  <g id="_2007156009472">
   <g>
    <g>
     <g>
      <g>
       <g>
        <path class="fil0" d="M22285.17 44570.36c12305.68,0 22285.19,-9979.5 22285.19,-22285.19 0,-12305.68 -9979.5,-22285.19 -22285.19,-22285.19 -12305.68,0 -22285.19,9979.5 -22285.19,22285.19 0,12305.68 9979.5,22285.19 22285.19,22285.19z"/>
        <path class="fil1 str0" d="M23169.84 1284.8l0 0c295.19,75.44 431.95,315.65 303.89,533.77l-737.27 1255.82c-128.06,218.1 -474.34,334.87 -769.53,259.43l0 0c-295.17,-75.44 -431.93,-315.63 -303.89,-533.75l737.28 -1255.84c128.06,-218.12 474.31,-334.85 769.51,-259.43zm-1319.57 -15.12l0 0c299.33,56.76 450.9,287.9 336.81,513.63l-656.97 1299.62c-114.12,225.73 -452.38,363.99 -751.73,307.25l0 0c-299.32,-56.78 -450.9,-287.9 -336.79,-513.63l656.97 -1299.64c114.1,-225.73 452.36,-363.99 751.71,-307.23zm-1317.91 67.77l0 0c302.31,37.86 468.07,259 368.37,491.47l-574.07 1338.31c-99.69,232.45 -428.63,391.68 -730.93,353.84l0 0c-302.28,-37.87 -468.1,-259.02 -368.39,-491.47l574.08 -1338.33c99.68,-232.47 428.59,-391.68 730.93,-353.82zm-1311.05 150.37l0 0c304.06,18.81 483.41,229.12 398.49,467.36l-488.9 1371.74c-84.9,238.24 -403.19,417.82 -707.28,399.03l0 0c-304.06,-18.81 -483.42,-229.11 -398.52,-467.36l488.91 -1371.75c84.9,-238.25 403.17,-417.79 707.3,-399.01zm-1299.04 232.42l0 0c304.63,-0.35 496.84,198.3 427.04,441.41l-401.78 1399.73c-69.78,243.11 -376.15,442.32 -680.84,442.65l0 0c-304.63,0.33 -496.86,-198.31 -427.06,-441.42l401.8 -1399.73c69.77,-243.12 376.13,-442.27 680.84,-442.64zm-1281.88 313.49l0 0c304.01,-19.46 508.32,166.72 453.92,413.75l-313.11 1422.18c-54.38,247 -347.64,465.06 -651.7,484.54l0 0c-304.01,19.46 -508.3,-166.72 -453.92,-413.74l313.11 -1422.19c54.36,-247.05 347.64,-465.04 651.7,-484.54zm-1259.65 393.41l0 0c302.2,-38.53 517.78,134.44 478.99,384.41l-223.18 1439.02c-38.77,249.93 -317.76,485.98 -620,524.5l0 0c-302.2,38.52 -517.78,-134.46 -479.01,-384.41l223.21 -1439.03c38.74,-249.98 317.75,-485.96 619.98,-524.48zm-1232.49 471.68l0 0c299.21,-57.41 525.22,101.71 502.2,353.59l-132.39 1450.21c-22.99,251.89 -286.62,504.98 -585.83,562.38l0 0c-299.17,57.42 -525.21,-101.68 -502.2,-353.57l132.39 -1450.21c23,-251.94 286.61,-504.93 585.83,-562.4zm-1200.43 548.16l0 0c295.01,-76.09 530.57,68.51 523.41,321.36l-41.07 1455.65c-7.13,252.82 -254.32,521.97 -549.35,598.08l0 0c-295,76.06 -530.57,-68.52 -523.41,-321.36l41.07 -1455.65c7.13,-252.88 254.32,-521.96 549.35,-598.08zm-1163.63 622.47l0 0c289.64,-94.47 533.81,35.03 542.57,287.84l50.39 1455.35c8.77,252.77 -221.05,536.92 -510.7,631.4l0 0c-289.64,94.44 -533.81,-35.07 -542.57,-287.84l-50.41 -1455.35c-8.77,-252.85 221.05,-536.91 510.72,-631.4zm-1122.26 694.29l0 0c283.14,-112.48 534.97,1.43 559.56,253.2l141.68 1449.31c24.61,251.73 -186.9,549.76 -470.05,662.24l0 0c-283.12,112.43 -534.97,-1.48 -559.55,-253.21l-141.71 -1449.31c-24.63,-251.8 186.9,-549.74 470.07,-662.22zm-1076.44 763.38l0 0c275.52,-130.03 534,-32.15 574.35,217.57l232.4 1437.58c40.36,249.67 -152.01,560.38 -427.55,690.41l0 0c-275.51,130 -533.99,32.12 -574.34,-217.55l-232.43 -1437.58c-40.39,-249.73 152.01,-560.38 427.56,-690.43zm-1026.4 829.47l0 0c266.82,-147.06 530.95,-65.62 586.89,181.08l322.23 1420.13c55.97,246.66 -116.53,568.83 -383.35,715.92l0 0c-266.81,147.04 -530.93,65.57 -586.87,-181.07l-322.24 -1420.14c-56,-246.72 116.53,-568.82 383.35,-715.92zm-972.27 892.27l0 0c257.06,-163.52 525.76,-98.81 597.1,143.87l410.76 1397.11c71.33,242.67 -80.6,575.03 -337.66,738.58l0 0c-257.05,163.49 -525.76,98.79 -597.07,-143.87l-410.77 -1397.11c-71.41,-242.71 80.58,-575 337.65,-738.58zm-914.33 951.59l0 0c246.28,-179.35 518.51,-131.65 604.94,106.09l497.68 1368.55c86.43,237.68 -44.34,578.94 -290.61,758.3l0 0c-246.28,179.32 -518.52,131.64 -604.94,-106.08l-497.68 -1368.55c-86.51,-237.76 44.32,-578.94 290.61,-758.32zm-852.79 1007.1l0 0c234.51,-194.47 509.22,-163.93 610.43,67.89l582.6 1334.61c101.21,231.8 -7.87,580.59 -242.41,775.06l0 0c-234.51,194.44 -509.2,163.93 -610.41,-67.89l-582.61 -1334.61c-101.27,-231.87 7.87,-580.56 242.41,-775.06zm-787.85 1058.66l0 0c221.85,-208.81 497.93,-195.6 613.47,29.44l665.28 1295.4c115.55,224.98 28.59,579.93 -193.28,788.73l0 0c-221.85,208.78 -497.91,195.57 -613.45,-29.44l-665.28 -1295.38c-115.62,-225.02 -28.59,-579.92 193.27,-788.75zm-719.85 1106.05l0 0c208.29,-222.33 484.65,-226.46 614.12,-9.14l745.31 1251.08c129.41,217.27 64.93,577 -143.38,799.31l0 0c-208.33,222.3 -484.65,226.46 -614.1,9.14l-745.31 -1251.04c-129.52,-217.33 -64.96,-576.98 143.37,-799.34zm-648.98 1149.07l0 0c193.93,-234.97 469.5,-256.46 612.35,-47.68l822.38 1201.79c142.82,208.72 101.03,571.78 -92.9,806.74l0 0c-193.95,234.96 -469.49,256.45 -612.32,47.71l-822.38 -1201.81c-142.93,-208.75 -101.06,-571.75 92.87,-806.75zm-575.53 1187.55l0 0c178.78,-246.69 452.47,-285.44 608.14,-86.04l896.23 1147.79c155.65,199.34 136.73,564.29 -42.07,810.96l0 0c-178.83,246.66 -452.46,285.43 -608.12,86.07l-896.21 -1147.8c-155.76,-199.35 -136.76,-564.28 42.03,-810.98zm-499.84 1221.34l0 0c162.95,-257.44 433.65,-313.29 601.55,-124.05l966.52 1089.25c167.85,189.19 171.89,554.6 8.96,812l0 0c-162.98,257.42 -433.66,313.29 -601.52,124.07l-966.53 -1089.23c-167.96,-189.19 -171.9,-554.6 -8.97,-812.04zm-422.14 1250.3l0 0c146.46,-267.14 413.12,-339.88 592.55,-161.56l1033.02 1026.4c179.39,178.26 206.39,542.71 59.91,809.86l0 0c-146.49,267.12 -413.14,339.88 -592.55,161.58l-1033.02 -1026.4c-179.5,-178.27 -206.39,-542.69 -59.91,-809.88zm-342.82 1274.35l0 0c129.38,-275.79 390.95,-365.16 581.23,-198.46l1095.44 959.52c190.23,166.65 240.05,528.68 110.65,804.5l0 0c-129.43,275.79 -390.98,365.16 -581.24,198.47l-1095.43 -959.52c-190.34,-166.64 -240.05,-528.66 -110.65,-804.51zm-262.14 1293.36l0 0c111.83,-283.38 367.29,-388.98 567.63,-234.55l1153.51 888.82c200.33,154.39 272.78,512.59 160.96,795.98l0 0c-111.85,283.38 -367.27,388.97 -567.63,234.58l-1153.51 -888.85c-200.41,-154.37 -272.78,-512.53 -160.96,-795.98zm-180.39 1307.25l0 0c93.8,-289.82 342.12,-411.24 551.79,-269.72l1207.06 814.67c209.6,141.49 304.42,494.41 210.61,784.27l0 0c-93.84,289.86 -342.14,411.29 -551.79,269.78l-1207.06 -814.67c-209.71,-141.48 -304.42,-494.41 -210.61,-784.33zm-97.96 1316.04l0 0c75.43,-295.15 315.62,-431.93 533.75,-303.84l1255.82 737.25c218.1,128.06 334.89,474.34 259.46,769.51l0 0c-75.46,295.17 -315.63,431.95 -533.75,303.87l-1255.82 -737.25c-218.2,-128.03 -334.87,-474.31 -259.46,-769.54zm-15.12 1319.55l0 0c56.74,-299.28 287.87,-450.87 513.62,-336.75l1299.62 656.95c225.72,114.1 364.01,452.38 307.28,751.71l0 0c-56.79,299.32 -287.9,450.91 -513.63,336.79l-1299.62 -656.95c-225.81,-114.07 -364.01,-452.36 -307.26,-751.76zm67.78 1317.93l0 0c37.84,-302.26 258.98,-468.05 491.47,-368.3l1338.31 574.04c232.43,99.69 391.68,428.63 353.85,730.92l0 0c-37.87,302.28 -259,468.11 -491.47,368.39l-1338.31 -574.07c-232.51,-99.66 -391.68,-428.59 -353.85,-730.98zm150.37 1311.07l0 0c18.79,-304.03 229.11,-483.39 467.37,-398.46l1371.72 488.9c238.24,84.92 417.82,403.19 399.06,707.27l0 0c-18.83,304.06 -229.11,483.42 -467.37,398.52l-1371.72 -488.91c-238.31,-84.87 -417.8,-403.16 -399.06,-707.31zm232.4 1299.04l0 0c-0.35,-304.61 198.3,-496.83 441.44,-427.01l1399.71 401.78c243.09,69.82 442.32,376.15 442.68,680.82l0 0c0.3,304.63 -198.31,496.86 -441.42,427.06l-1399.71 -401.78c-243.19,-69.75 -442.32,-376.13 -442.7,-680.87zm313.49 1281.85l0 0c-19.47,-303.98 166.7,-508.29 413.75,-453.88l1422.18 313.11c247,54.4 465.06,347.63 484.56,651.67l0 0c19.42,304.01 -166.72,508.34 -413.75,453.92l-1422.18 -313.11c-247.08,-54.32 -465.06,-347.61 -484.56,-651.72zm393.38 1259.67l0 0c-38.52,-302.17 134.46,-517.75 384.44,-478.96l1439.02 223.18c249.93,38.8 485.98,317.76 524.53,619.98l0 0c38.49,302.19 -134.47,517.8 -384.41,479.01l-1439.05 -223.19c-250,-38.71 -485.98,-317.75 -524.53,-620.01zm471.69 1232.49l0 0c-57.42,-299.16 101.68,-525.19 353.6,-502.19l1450.21 132.39c251.87,23.04 504.96,286.64 562.4,585.83l0 0c57.39,299.16 -101.68,525.22 -353.57,502.2l-1450.19 -132.39c-251.97,-22.94 -504.98,-286.59 -562.45,-585.85zm548.19 1200.43l0 0c-76.09,-294.96 68.51,-530.54 321.36,-523.36l1455.67 41.06c252.82,7.17 521.96,254.33 598.08,549.35l0 0c76.06,294.96 -68.51,530.57 -321.34,523.41l-1455.67 -41.06c-252.88,-7.08 -521.94,-254.32 -598.1,-549.39zm622.46 1163.63l0 0c-94.46,-289.59 35.05,-533.78 287.85,-542.5l1455.38 -50.42c252.76,-8.72 536.91,221.07 631.4,510.7l0 0c94.41,289.62 -35.07,533.83 -287.85,542.55l-1455.37 50.42c-252.82,8.83 -536.89,-221.05 -631.41,-510.75zm693.97 1122.88l0 0c-112.45,-283.09 1.47,-534.95 253.21,-559.51l1449.34 -141.71c251.72,-24.56 549.74,186.91 662.25,470.05l0 0c112.4,283.11 -1.5,534.98 -253.25,559.55l-1449.31 141.71c-251.8,24.69 -549.71,-186.88 -662.25,-470.09zm763.41 1076.48l0 0c-130.03,-275.48 -32.15,-534 217.57,-574.3l1437.6 -232.45c249.67,-40.32 560.38,152.04 690.44,427.55l0 0c129.95,275.49 32.13,534.02 -217.6,574.35l-1437.57 232.42c-249.73,40.44 -560.35,-151.98 -690.44,-427.56zm829.49 1026.4l0 0c-147.06,-266.76 -65.61,-530.91 181.07,-586.82l1420.17 -322.26c246.64,-55.92 568.83,116.55 715.92,383.34l0 0c147.01,266.81 65.59,530.96 -181.1,586.89l-1420.11 322.23c-246.73,56.07 -568.82,-116.5 -715.95,-383.37zm892.29 972.32l0 0c-163.52,-257.03 -98.79,-525.77 143.89,-597.06l1397.12 -410.8c242.63,-71.3 575.03,80.6 738.59,337.65l0 0c163.44,257.03 98.79,525.79 -143.9,597.09l-1397.09 410.79c-242.7,71.41 -574.98,-80.58 -738.61,-337.66zm951.57 914.36l0 0c-179.3,-246.26 -131.59,-518.54 106.13,-604.91l1368.55 -497.74c237.72,-86.37 578.97,44.34 758.37,290.61l0 0c179.24,246.26 131.61,518.55 -106.13,604.95l-1368.54 497.68c-237.76,86.51 -578.92,-44.3 -758.38,-290.6zm1007.15 852.81l0 0c-194.45,-234.53 -163.91,-509.27 67.92,-610.39l1334.61 -582.68c231.82,-101.14 580.61,7.9 775.08,242.41l0 0c194.39,234.51 163.91,509.27 -67.92,610.43l-1334.59 582.63c-231.85,101.27 -580.56,-7.87 -775.09,-242.4zm1058.69 787.88l0 0c-208.78,-221.85 -195.57,-497.96 29.44,-613.45l1295.4 -665.34c225.02,-115.49 579.96,-28.59 788.78,193.27l0 0c208.72,221.85 195.57,497.98 -29.45,613.5l-1295.38 665.28c-225.02,115.62 -579.92,28.6 -788.78,-193.25zm1106.07 719.85l0 0c-222.31,-208.29 -226.46,-484.72 -9.13,-614.1l1251.03 -745.36c217.36,-129.41 577.06,-64.94 799.37,143.37l0 0c222.26,208.31 226.47,484.72 9.13,614.13l-1251.04 745.31c-217.33,129.52 -576.97,64.94 -799.36,-143.35zm1149.1 648.98l0 0c-234.97,-193.92 -256.45,-469.52 -47.68,-612.3l1201.76 -822.46c208.8,-142.8 571.83,-101.03 806.8,92.9l0 0c234.88,193.95 256.46,469.52 47.68,612.33l-1201.77 822.41c-208.78,142.91 -571.77,101.05 -806.78,-92.88zm1187.57 575.55l0 0c-246.69,-178.78 -285.43,-452.51 -86.04,-608.11l1147.76 -896.29c199.42,-155.62 564.36,-136.73 811.04,42.05l0 0c246.59,178.84 285.43,452.51 86.02,608.14l-1147.77 896.25c-199.39,155.74 -564.28,136.75 -811.01,-42.03zm1221.37 499.84l0 0c-257.42,-162.93 -313.29,-433.68 -124.07,-601.5l1089.21 -966.58c189.26,-167.85 554.66,-171.9 812.1,-8.97l0 0c257.34,163 313.27,433.68 124.02,601.53l-1089.23 966.55c-189.2,167.98 -554.58,171.9 -812.04,8.97zm1250.34 422.17l0 0c-267.14,-146.46 -339.9,-413.18 -161.59,-592.53l1026.38 -1033.07c178.35,-179.41 542.77,-206.4 809.91,-59.95l0 0c267.09,146.54 339.9,413.18 161.56,592.56l-1026.38 1033.04c-178.27,179.5 -542.69,206.39 -809.88,59.95zm1274.38 342.82l0 0c-275.79,-129.38 -365.19,-391.02 -198.47,-581.19l959.49 -1095.51c166.72,-190.24 528.74,-240.06 804.55,-110.68l0 0c275.76,129.49 365.16,391.02 198.47,581.27l-959.5 1095.43c-166.69,190.35 -528.66,240.06 -804.53,110.68zm1293.39 262.17l0 0c-283.38,-111.82 -389.03,-367.32 -234.56,-567.59l888.79 -1153.59c154.45,-200.35 512.61,-272.8 796,-160.98l0 0c283.36,111.9 389,367.32 234.56,567.65l-888.82 1153.53c-154.37,200.44 -512.55,272.78 -795.97,160.98zm1307.3 180.4l0 0c-289.84,-93.81 -411.32,-342.17 -269.74,-551.76l814.59 -1207.12c141.57,-209.62 494.48,-304.44 784.35,-210.66l0 0c289.79,93.91 411.29,342.19 269.72,551.84l-814.64 1207.06c-141.48,209.73 -494.4,304.42 -784.29,210.64zm1316.04 97.94l0 0c-295.15,-75.41 -431.98,-315.65 -303.86,-533.72l737.21 -1255.87c128.12,-218.12 474.39,-334.9 769.56,-259.51l0 0c295.14,75.52 431.98,315.68 303.86,533.8l-737.24 1255.82c-128.04,218.21 -474.31,334.87 -769.53,259.47zm1319.61 15.14l0 0c-299.32,-56.76 -450.96,-287.92 -336.78,-513.59l656.89 -1299.69c114.17,-225.73 452.43,-364.02 751.76,-307.33l0 0c299.28,56.85 450.93,287.95 336.76,513.68l-656.94 1299.62c-114.09,225.83 -452.35,364.01 -751.7,307.29zm1317.94 -67.77l0 0c-302.28,-37.84 -468.15,-259.03 -368.37,-491.43l574 -1338.36c99.79,-232.47 428.68,-391.71 730.98,-353.9l0 0c302.26,37.93 468.11,259.05 368.34,491.5l-574.02 1338.31c-99.69,232.54 -428.6,391.68 -730.93,353.88zm1311.08 -150.4l0 0c-304.05,-18.76 -483.49,-229.12 -398.47,-467.33l488.8 -1371.75c84.98,-238.27 403.23,-417.85 707.31,-399.1l0 0c304.06,18.87 483.47,229.14 398.49,467.41l-488.86 1371.71c-84.89,238.36 -403.16,417.82 -707.27,399.07zm1299.05 -232.4l0 0c-304.63,0.35 -496.91,-198.31 -427.04,-441.37l401.72 -1399.77c69.86,-243.12 376.21,-442.34 680.86,-442.71l0 0c304.65,-0.24 496.91,198.33 427.06,441.47l-401.77 1399.71c-69.75,243.2 -376.12,442.29 -680.82,442.68zm1281.9 -313.51l0 0c-304,19.46 -508.38,-166.73 -453.91,-413.7l313.03 -1422.22c54.46,-247.05 347.7,-465.1 651.72,-484.61l0 0c304.01,-19.38 508.38,166.75 453.92,413.78l-313.06 1422.18c-54.36,247.1 -347.61,465.04 -651.7,484.58zm1259.83 -392.67l0 0c-302.19,38.49 -517.86,-134.51 -478.99,-384.41l223.12 -1439.08c38.85,-249.97 317.79,-486.01 620,-524.58l0 0c302.2,-38.42 517.86,134.49 479.03,384.46l-223.16 1439.05c-38.75,250.03 -317.72,485.95 -619.98,524.56zm1232.52 -471.73l0 0c-299.17,57.39 -525.27,-101.71 -502.17,-353.59l132.31 -1450.24c23.07,-251.92 286.64,-505.01 585.83,-562.46l0 0c299.19,-57.31 525.29,101.71 502.22,353.62l-132.38 1450.21c-22.96,251.97 -286.58,504.93 -585.81,562.46zm1200.29 -548.87l0 0c-294.98,76.06 -530.6,-68.54 -523.38,-321.34l40.98 -1455.68c7.24,-252.87 254.38,-522.02 549.36,-598.14l0 0c295.01,-76.01 530.65,68.52 523.44,321.39l-41.06 1455.65c-7.1,252.91 -254.3,521.93 -549.35,598.13zm1163.67 -622.47l0 0c-289.6,94.44 -533.88,-35.07 -542.52,-287.84l-50.5 -1455.38c-8.67,-252.84 221.08,-536.97 510.72,-631.46l0 0c289.65,-94.38 533.89,35.07 542.58,287.87l50.42 1455.38c8.8,252.87 -221.03,536.86 -510.7,631.43zm1122.28 -694.3l0 0c-283.11,112.45 -535.03,-1.48 -559.51,-253.18l-141.81 -1449.37c-24.52,-251.78 186.93,-549.77 470.07,-662.27l0 0c283.16,-112.37 535.06,1.47 559.59,253.25l141.71 1449.31c24.64,251.81 -186.9,549.69 -470.05,662.27zm1076.48 -763.41l0 0c-275.49,130 -534.05,32.13 -574.32,-217.55l-232.51 -1437.61c-40.28,-249.73 152.02,-560.41 427.56,-690.46l0 0c275.51,-129.93 534.07,-32.15 574.38,217.58l232.43 1437.58c40.41,249.76 -152.01,560.33 -427.55,690.46zm1026.42 -829.49l0 0c-266.79,147.04 -530.98,65.61 -586.84,-181.07l-322.34 -1420.17c-55.89,-246.72 116.53,-568.86 383.37,-715.97l0 0c266.82,-146.95 530.99,-65.59 586.92,181.11l322.23 1420.16c56.04,246.73 -116.53,568.75 -383.34,715.94zm972.29 -892.3l0 0c-257.01,163.52 -525.79,98.83 -597.06,-143.86l-410.85 -1397.12c-71.3,-242.73 80.6,-575.06 337.66,-738.64l0 0c257.05,-163.41 525.84,-98.81 597.13,143.9l410.76 1397.11c71.39,242.74 -80.6,574.97 -337.65,738.61zm914.36 -951.59l0 0c-246.26,179.32 -518.55,131.64 -604.91,-106.09l-497.77 -1368.55c-86.4,-237.78 44.34,-578.99 290.61,-758.4l0 0c246.28,-179.22 518.6,-131.62 604.99,106.13l497.68 1368.55c86.5,237.78 -44.34,578.91 -290.6,758.37zm852.81 -1007.13l0 0c-234.5,194.42 -509.28,163.94 -610.38,-67.89l-582.72 -1334.62c-101.16,-231.87 7.9,-580.59 242.41,-775.13l0 0c234.55,-194.36 509.31,-163.93 610.44,67.94l582.64 1334.61c101.27,231.85 -7.9,580.55 -242.4,775.09zm787.86 -1058.69l0 0c-221.82,208.77 -497.96,195.59 -613.42,-29.44l-665.39 -1295.38c-115.52,-225.07 -28.57,-579.98 193.27,-788.83l0 0c221.9,-208.69 498.01,-195.6 613.52,29.47l665.28 1295.4c115.65,225.02 28.59,579.9 -193.25,788.78zm719.85 -1106.07l0 0c-208.26,222.3 -484.69,226.47 -614.05,9.14l-745.4 -1251.04c-129.43,-217.38 -64.93,-577.03 143.34,-799.39l0 0c208.36,-222.25 484.76,-226.51 614.16,-9.13l745.31 1251.06c129.54,217.33 64.93,576.95 -143.35,799.36zm648.94 -1149.07l0 0c-193.9,234.92 -469.52,256.46 -612.27,47.68l-822.47 -1201.79c-142.85,-208.8 -101.06,-571.81 92.85,-806.8l0 0c193.99,-234.88 469.58,-256.48 612.38,-47.68l822.38 1201.82c142.94,208.74 101.05,571.72 -92.87,806.77zm575.57 -1187.6l0 0c-178.75,246.64 -452.47,285.46 -608.06,86.04l-896.32 -1147.77c-155.67,-199.4 -136.75,-564.34 42.03,-811.04l0 0c178.86,-246.58 452.54,-285.46 608.17,-86.02l896.23 1147.79c155.74,199.37 136.73,564.26 -42.05,811.01zm499.85 -1221.36l0 0c-162.93,257.38 -433.66,313.29 -601.47,124.05l-966.61 -1089.23c-167.88,-189.25 -171.94,-554.64 -8.99,-812.1l0 0c163.01,-257.33 433.73,-313.29 601.56,-124.05l966.53 1089.28c167.98,189.2 171.89,554.56 8.97,812.05zm422.17 -1250.35l0 0c-146.46,267.1 -413.14,339.9 -592.5,161.56l-1033.1 -1026.37c-179.43,-178.34 -206.42,-542.75 -59.96,-809.91l0 0c146.54,-267.07 413.2,-339.93 592.59,-161.59l1033.01 1026.43c179.52,178.27 206.37,542.68 59.96,809.88zm342.82 -1274.38l0 0c-129.38,275.78 -390.98,365.17 -581.18,198.46l-1095.52 -959.49c-190.26,-166.72 -240.08,-528.72 -110.7,-804.56l0 0c129.49,-275.73 391.03,-365.17 581.29,-198.46l1095.43 959.55c190.37,166.64 240.05,528.61 110.68,804.5zm262.5 -1292.97l0 0c-111.8,283.36 -367.25,389.03 -567.56,234.56l-1153.61 -888.8c-200.36,-154.45 -272.81,-512.59 -161.01,-796.02l0 0c111.93,-283.31 367.33,-389.01 567.68,-234.58l1153.51 888.87c200.46,154.37 272.76,512.51 160.98,795.97zm180.42 -1307.32l0 0c-93.81,289.82 -342.12,411.31 -551.74,269.74l-1207.13 -814.61c-209.65,-141.59 -304.46,-494.48 -210.68,-784.35l0 0c93.92,-289.78 342.2,-411.32 551.85,-269.75l1207.04 814.68c209.75,141.48 304.42,494.37 210.66,784.29zm97.94 -1316.07l0 0c-75.43,295.14 -315.62,431.96 -533.69,303.84l-1255.9 -737.19c-218.15,-128.14 -334.92,-474.39 -259.52,-769.58l0 0c75.54,-295.12 315.7,-431.99 533.81,-303.89l1255.82 737.28c218.21,128.03 334.85,474.3 259.47,769.53zm15.14 -1319.63l0 0c-56.76,299.3 -287.89,450.94 -513.57,336.76l-1299.7 -656.87c-225.76,-114.2 -364.05,-452.44 -307.34,-751.77l0 0c56.87,-299.27 287.96,-450.96 513.7,-336.79l1299.62 656.98c225.83,114.06 363.98,452.33 307.29,751.7zm-67.77 -1317.96l0 0c-37.84,302.26 -258.98,468.11 -491.4,368.33l-1338.39 -573.96c-232.48,-99.8 -391.73,-428.68 -353.93,-730.99l0 0c37.97,-302.25 259.06,-468.16 491.51,-368.39l1338.33 574.07c232.54,99.68 391.66,428.59 353.88,730.95zm-150.4 -1311.12l0 0c-18.78,304.03 -229.06,483.44 -467.3,398.47l-1371.8 -488.8c-238.3,-85 -417.87,-403.25 -399.1,-707.33l0 0c18.89,-304.05 229.14,-483.5 467.41,-398.54l1371.72 488.91c238.33,84.87 417.8,403.16 399.07,707.28zm-232.78 -1299.39l0 0c0.35,304.63 -198.25,496.91 -441.36,427.03l-1399.79 -401.69c-243.17,-69.86 -442.34,-376.21 -442.75,-680.87l0 0c-0.22,-304.63 198.36,-496.92 441.47,-427.09l1399.73 401.82c243.22,69.74 442.27,376.12 442.7,680.81zm-313.52 -1281.9l0 0c19.46,304 -166.65,508.37 -413.67,453.89l-1422.24 -313c-247.1,-54.46 -465.1,-347.7 -484.64,-651.73l0 0c-19.33,-304 166.75,-508.4 413.78,-453.96l1422.19 313.11c247.11,54.35 465.01,347.63 484.58,651.69zm-393.38 -1259.68l0 0c38.52,302.17 -134.41,517.83 -384.38,478.96l-1439.09 -223.08c-250,-38.83 -486.01,-317.79 -524.58,-620l0 0c-38.41,-302.22 134.49,-517.87 384.44,-479.06l1439.05 223.21c250.04,38.71 485.93,317.72 524.56,619.96zm-471.71 -1232.5l0 0c57.42,299.14 -101.63,525.24 -353.55,502.16l-1450.26 -132.3c-251.95,-23.05 -505.01,-286.66 -562.48,-585.83l0 0c-57.3,-299.17 101.73,-525.29 353.62,-502.23l1450.24 132.41c251.95,22.94 504.9,286.58 562.43,585.8zm-548.16 -1200.45l0 0c76.07,294.95 -68.46,530.58 -321.33,523.38l-1455.71 -40.98c-252.9,-7.19 -522.01,-254.38 -598.16,-549.38l0 0c-75.96,-294.98 68.55,-530.63 321.39,-523.44l1455.68 41.09c252.9,7.08 521.91,254.32 598.13,549.33zm-622.16 -1163.49l0 0c94.46,289.59 -34.99,533.86 -287.81,542.52l-1455.41 50.52c-252.85,8.7 -536.97,-221.11 -631.47,-510.73l0 0c-94.35,-289.64 35.08,-533.89 287.89,-542.6l1455.38 -50.39c252.87,-8.83 536.84,221.05 631.43,510.69zm-694.62 -1122.45l0 0c112.45,283.08 -1.4,535 -253.2,559.5l-1449.37 141.81c-251.8,24.58 -549.77,-186.96 -662.28,-470.07l0 0c-112.37,-283.12 1.5,-535.04 253.25,-559.59l1449.36 -141.68c251.8,-24.67 549.68,186.9 662.25,470.04zm-763.41 -1076.49l0 0c130.01,275.48 32.2,534.04 -217.55,574.34l-1437.61 232.51c-249.76,40.33 -560.43,-152.07 -690.49,-427.55l0 0c-129.93,-275.52 -32.13,-534.1 217.61,-574.4l1437.58 -232.42c249.76,-40.43 560.32,152.02 690.46,427.52zm-829.49 -1026.4l0 0c147.06,266.76 65.65,530.96 -181.07,586.84l-1420.17 322.34c-246.72,55.94 -568.86,-116.58 -715.97,-383.35l0 0c-146.98,-266.82 -65.61,-531.02 181.1,-586.95l1420.16 -322.19c246.75,-56.05 568.77,116.53 715.95,383.32zm-892.3 -972.29l0 0c163.52,256.98 98.87,525.77 -143.87,597.04l-1397.12 410.87c-242.73,71.31 -575.06,-80.62 -738.64,-337.63l0 0c-163.42,-257.08 -98.81,-525.87 143.92,-597.17l1397.12 -410.74c242.71,-71.41 574.95,80.6 738.59,337.63zm-951.37 -914.28l0 0c179.35,246.21 131.72,518.55 -106.08,604.91l-1368.55 497.79c-237.79,86.4 -579.02,-44.35 -758.4,-290.57l0 0c-179.25,-246.32 -131.62,-518.65 106.13,-605.03l1368.57 -497.66c237.78,-86.51 578.89,44.32 758.33,290.57zm-1007.15 -852.82l0 0c194.45,234.47 164.01,509.27 -67.89,610.38l-1334.59 582.74c-231.9,101.19 -580.66,-7.9 -775.14,-242.37l0 0c-194.36,-234.59 -163.93,-509.36 67.92,-610.52l1334.64 -582.6c231.87,-101.29 580.52,7.9 775.06,242.37zm-1058.71 -787.9l0 0c208.78,221.81 195.68,497.98 -29.44,613.45l-1295.35 665.37c-225.12,115.55 -580.03,28.57 -788.86,-193.22l0 0c-208.69,-221.92 -195.57,-498.06 29.47,-613.55l1295.43 -665.28c225.04,-115.63 579.85,-28.57 788.75,193.22zm-1106.09 -719.86l0 0c222.3,208.25 226.55,484.72 9.14,614.07l-1251.03 745.44c-217.41,129.46 -577.09,64.93 -799.42,-143.34l0 0c-222.22,-208.36 -226.49,-484.76 -9.11,-614.19l1251.08 -745.28c217.36,-129.52 576.94,-64.94 799.34,143.3zm-1149.11 -649.01l0 0c234.92,193.9 256.54,469.53 47.68,612.32l-1201.76 822.49c-208.85,142.86 -571.86,101.05 -806.83,-92.83l0 0c-234.88,-194.01 -256.46,-469.6 -47.66,-612.43l1201.82 -822.38c208.8,-142.89 571.7,-101.03 806.75,92.83zm-1187.6 -575.55l0 0c246.66,178.76 285.52,452.51 86.05,608.11l-1147.76 896.34c-199.47,155.67 -564.39,136.73 -811.09,-42l0 0c-246.58,-178.87 -285.43,-452.57 -86.01,-608.2l1147.8 -896.23c199.42,-155.74 564.26,-136.73 810.99,41.99zm-1221.39 -499.85l0 0c257.39,162.92 313.38,433.7 124.07,601.52l-1089.2 966.63c-189.31,167.9 -554.69,171.92 -812.13,9.02l0 0c-257.34,-163.04 -313.3,-433.77 -124.02,-601.61l1089.25 -966.53c189.25,-167.95 554.56,-171.89 812.04,-9.02zm-1250.37 -422.17l0 0c267.1,146.44 339.98,413.15 161.61,592.53l-1026.38 1033.12c-178.37,179.46 -542.8,206.4 -809.94,59.99l0 0c-267.07,-146.57 -339.93,-413.23 -161.55,-592.62l1026.38 -1033.02c178.32,-179.5 542.68,-206.39 809.88,-59.99zm-1274.41 -342.83l0 0c275.78,129.38 365.25,391 198.5,581.24l-959.49 1095.51c-166.75,190.29 -528.75,240.08 -804.59,110.73l0 0c-275.74,-129.51 -365.21,-391.08 -198.44,-581.3l959.5 -1095.46c166.72,-190.34 528.66,-240.03 804.51,-110.71zm-1293.43 -262.11l0 0c283.36,111.8 389.11,367.29 234.61,567.59l-888.8 1153.61c-154.48,200.41 -512.64,272.81 -796.03,161.03l0 0c-283.34,-111.93 -389.04,-367.35 -234.56,-567.7l888.82 -1153.53c154.44,-200.44 512.55,-272.75 795.97,-160.99zm-1307.32 -180.4l0 0c289.82,93.78 411.39,342.12 269.77,551.76l-814.59 1207.13c-141.6,209.68 -494.52,304.46 -784.38,210.69l0 0c-289.79,-93.92 -411.34,-342.22 -269.74,-551.87l814.64 -1207.06c141.55,-209.73 494.4,-304.41 784.3,-210.66z"/>
       </g>
      </g>
     </g>
     <g>
      <path class="fil2 str1" d="M20552.53 30657.48c1054.61,23.24 1100.9,-220.17 1100.9,-498.26 0,-266.55 -92.68,-486.81 -1100.9,-486.81 -915.54,-11.53 -1100.96,220.26 -1100.96,486.81 0,278.09 231.79,475.12 1100.96,498.26z"/>
      <path class="fil2 str1" d="M19521.09 31260.11c1042.99,23.22 1100.98,-220.18 1100.98,-486.74 0,-278.08 -92.76,-498.34 -1100.98,-498.34 -915.56,0 -1100.98,220.26 -1100.98,498.34 0,266.55 220.18,463.59 1100.98,486.74z"/>
      <path class="fil2 str1" d="M16820.81 17909.58c822.88,-648.99 706.98,-880.7 533.09,-1089.36 -173.8,-208.56 -393.98,-312.92 -1170.48,336.08 -695.3,579.48 -695.3,880.79 -521.5,1089.36 173.89,208.64 475.21,208.64 1158.89,-336.08z"/>
      <g>
       <path class="fil2 str1" d="M11826 32013.38c-278.17,567.87 231.79,1124.2 127.51,1715.22 -34.84,162.27 -266.55,104.28 -347.69,57.9 -730.14,-475.12 -1112.58,-1193.62 -1483.42,-1946.91 -938.71,-1842.64 -1448.67,-3870.69 -1216.86,-5921.98 139.13,-1332.76 382.44,-2607.54 1216.86,-3754.81 208.64,-289.78 579.48,-764.89 996.68,-475.19 -475.19,3499.86 1935.31,6501.45 4832.64,8309.33 92.66,57.91 -46.39,243.33 -81.14,254.95 -544.73,266.55 -1170.49,23.15 -1784.73,-104.28 -46.39,-11.62 -115.9,81.14 -69.53,139.03 2062.83,1842.64 4519.7,3129.02 6327.58,3129.02 0,-3523 0,-21590.24 0,-21590.24 -1008.22,-973.55 -1634.08,-1761.59 -1634.08,-3129.04 -46.29,-1796.34 1715.22,-3592.6 3592.61,-3592.6 1796.35,0 3673.75,1680.36 3673.75,3789.56 0,1726.82 -1286.39,2422.12 -1761.59,2781.41 0,0 0,14903.38 0,21787.29 2375.75,-220.18 4658.82,-1622.46 6385.57,-3175.41 -764.91,-197.02 -1494.96,185.42 -2271.47,-11.6 -115.89,-23.15 -104.28,-162.19 -69.52,-208.56 1077.82,-1008.22 2329.44,-1668.85 3337.66,-2758.2 1506.58,-1634.07 2143.96,-3720.02 2201.86,-5863.99 672.23,-57.99 822.9,637.39 1054.61,1042.99 846.03,1529.71 973.53,3268.07 799.64,4983.27 -208.56,2120.82 -776.42,4079.35 -2016.43,5933.6 -162.27,231.71 -637.39,614.16 -683.77,312.84 -127.51,-648.99 208.56,-1321.14 139.05,-2016.44 -11.62,-57.99 -92.66,-127.51 -139.05,-69.52 -822.8,1066.13 -1518.18,2062.81 -2514.78,2966.75 -1900.62,1715.12 -4195.23,2398.9 -6397.17,3627.38 -567.87,312.84 -915.56,556.25 -1529.72,1100.96 -394.06,347.61 -788.04,-683.76 -1298,-985.08 -602.62,-336.07 -1182.1,-602.62 -1807.88,-857.65 -1321.14,-312.84 -6258.05,-3163.79 -7625.57,-5585.89l46.39 115.89z"/>
       <path class="fil3 str1" d="M11826 32013.38c-278.17,567.87 231.79,1124.2 127.51,1715.22 -34.84,162.27 -266.55,104.28 -347.69,57.9 -730.14,-475.12 -1112.58,-1193.62 -1483.42,-1946.91 -938.71,-1842.64 -1448.67,-3870.69 -1216.86,-5921.98 139.13,-1332.76 382.44,-2607.54 1216.86,-3754.81 208.64,-289.78 579.48,-764.89 996.68,-475.19 -475.19,3499.86 1935.31,6501.45 4832.64,8309.33 92.66,57.91 -46.39,243.33 -81.14,254.95 -544.73,266.55 -1170.49,23.15 -1784.73,-104.28 -46.39,-11.62 -115.9,81.14 -69.53,139.03 2062.83,1842.64 4519.7,3129.02 6327.58,3129.02 0,-3523 0,-21590.24 0,-21590.24 -1008.22,-973.55 -1634.08,-1761.59 -1634.08,-3129.04 -46.29,-1796.34 1715.22,-3592.6 3592.61,-3592.6 1796.35,0 3673.75,1680.36 3673.75,3789.56 0,1726.82 -1286.39,2422.12 -1761.59,2781.41 0,0 0,14903.38 0,21787.29 2375.75,-220.18 4658.82,-1622.46 6385.57,-3175.41 -764.91,-197.02 -1494.96,185.42 -2271.47,-11.6 -115.89,-23.15 -104.28,-162.19 -69.52,-208.56 1077.82,-1008.22 2329.44,-1668.85 3337.66,-2758.2 1506.58,-1634.07 2143.96,-3720.02 2201.86,-5863.99 672.23,-57.99 822.9,637.39 1054.61,1042.99 846.03,1529.71 973.53,3268.07 799.64,4983.27 -208.56,2120.82 -776.42,4079.35 -2016.43,5933.6 -162.27,231.71 -637.39,614.16 -683.77,312.84 -127.51,-648.99 208.56,-1321.14 139.05,-2016.44 -11.62,-57.99 -92.66,-127.51 -139.05,-69.52 -822.8,1066.13 -1518.18,2062.81 -2514.78,2966.75 -1900.62,1715.12 -4195.23,2398.9 -6397.17,3627.38 -567.87,312.84 -915.56,556.25 -1529.72,1100.96 -394.06,347.61 -788.04,-683.76 -1298,-985.08 -602.62,-336.07 -1182.1,-602.62 -1807.88,-857.65 -1321.14,-312.84 -6258.05,-3163.79 -7625.57,-5585.89"/>
      </g>
      <path class="fil2 str1" d="M22337.19 12370.06c2074.43,0 3766.41,-1680.37 3766.41,-3754.81 0,-2074.42 -1691.98,-3754.87 -3766.41,-3754.87 -2074.43,0 -3754.81,1680.45 -3754.81,3754.87 0,2074.43 1680.37,3754.81 3754.81,3754.81z"/>
      <path class="fil0 str1" d="M22337.19 10110.21c-822.8,0 -1483.34,-660.53 -1483.34,-1494.96 0,-822.88 660.53,-1483.42 1483.34,-1483.42 834.41,0 1495.04,660.53 1495.04,1483.42 0,834.42 -660.63,1494.96 -1495.04,1494.96z"/>
      <line class="fil3 str1" x1="20969.75" y1="12138.27" x2="20969.75" y2= "34783.19" />
      <path class="fil3 str1" d="M23044.17 34632.54c3013.14,115.89 5945.12,-1877.41 7474.84,-3326.06"/>
      <path class="fil3 str1" d="M18350.59 36312.9c2190.33,822.9 2781.33,973.55 3720.04,1877.49"/>
      <path class="fil2 str1" d="M24214.58 13644.83c0,-1274.77 0,-3743.19 0,-3743.19 0,-1807.96 -2827.7,-1634.08 -3256.45,-707 139.05,255.03 440.35,718.52 880.72,857.65 127.51,150.67 150.65,220.18 162.27,509.88 0,1622.46 0,3082.65 0,3082.65l2213.46 0z"/>
      <line class="fil3 str1" x1="23044.17" y1="10179.73" x2="23044.17" y2= "34632.54" />
      <line class="fil3 str1" x1="22337.19" y1="35293.07" x2="22337.19" y2= "22823.34" />
      <line class="fil3 str1" x1="22696.48" y1="22267.09" x2="22696.48" y2= "35061.37" />
      <line class="fil3 str1" x1="23519.28" y1="21131.36" x2="23519.28" y2= "24225.63" />
      <line class="fil3 str1" x1="23519.28" y1="25361.36" x2="23519.28" y2= "26809.93" />
      <line class="fil3 str1" x1="23519.28" y1="28641.03" x2="23519.28" y2= "29776.78" />
      <line class="fil3 str1" x1="23519.28" y1="32789.9" x2="23519.28" y2= "34157.43" />
      <line class="fil3 str1" x1="23519.28" y1="30333.03" x2="23519.28" y2= "31457.13" />
      <path class="fil3 str1" d="M23716.32 34157.43c1402.28,-69.61 3754.81,-741.76 4728.26,-1564.55"/>
      <path class="fil3 str1" d="M22696.48 35061.37c3581.01,-231.8 6188.53,-1680.45 7961.66,-3465.19"/>
      <path class="fil3 str1" d="M31457.7 30715.47c1356,-1680.45 2051.29,-3488.33 2190.33,-4763.09"/>
      <path class="fil3 str1" d="M22418.32 35490.1c9271.18,-706.9 11855.57,-7625.57 11936.71,-12168.4 1008.21,1332.67 463.5,6814.3 -625.86,8332.48 -46.37,-1205.26 -46.37,-1483.42 -162.19,-1993.3"/>
      <path class="fil3 str1" d="M32860 27273.52c-231.8,741.67 -579.4,1413.9 -625.78,1529.71"/>
      <path class="fil3 str1" d="M32037.19 28328.11c-185.42,475.12 -347.69,753.29 -347.69,753.29"/>
      <path class="fil3 str1" d="M31225.99 28768.46c0,0 -197.02,312.94 -312.92,428.82"/>
      <path class="fil3 str1" d="M32593.44 30599.58c-509.88,1993.3 -3129.02,3986.58 -6964.96,5945.12 -938.71,278.16 -2700.2,1298 -3210.16,1877.47"/>
      <path class="fil3 str1" d="M11582.59 30367.78c672.23,1054.61 2074.43,3523.1 6373.95,5748.18"/>
      <path class="fil3 str1" d="M10261.44 23205.79c312.92,3129.02 1089.34,10175.12 10395.37,12203.17"/>
      <path class="fil3 str1" d="M11037.94 26497.09c231.8,776.43 393.98,1170.49 393.98,1170.49"/>
      <path class="fil3 str1" d="M11547.82 27864.52c1054.59,2700.29 4102.57,6455.08 9074.24,7115.71"/>
      <path class="fil3 str1" d="M14757.98 31897.5c938.71,741.75 3395.58,2503.24 5782.95,2653.91"/>
      <path class="fil3 str1" d="M17098.97 32905.8c1564.55,869.17 2352.6,1135.73 3441.96,1251.63"/>
      <path class="fil3 str1" d="M11895.51 27980.42c197.04,509.96 706.9,1286.39 706.9,1286.39"/>
      <path class="fil3 str1" d="M12602.41 28455.62c197.04,382.45 475.21,811.2 475.21,811.2"/>
      <line class="fil3 str1" x1="13309.41" y1="28953.88" x2="13657.02" y2= "29429.09" />
      <path class="fil3 str1" d="M9948.6 23762.04c-788.05,3441.95 -440.44,6095.87 973.46,8089.16 34.75,-857.65 81.14,-1993.3 463.57,-2225.1"/>
      <path class="fil3 str1" d="M21085.56 7247.74c-741.67,243.33 -1008.22,2190.32 0,2816.1"/>
      <path class="fil3 str1" d="M20146.85 7803.99c-382.44,857.57 -266.55,1564.55 359.31,2109.18"/>
      <line class="fil3 str1" x1="22337.19" y1="21061.84" x2="22337.19" y2= "10376.76" />
      <line class="fil3 str1" x1="22696.48" y1="10260.86" x2="22696.48" y2= "21015.46" />
      <path class="fil3 str1" d="M23403.4 9994.31c115.89,92.76 115.89,741.67 115.89,741.67 0,695.38 0,8819.31 0,8819.31"/>
      <path class="fil3 str1" d="M23438.15 5799.08c903.94,475.21 2155.57,1332.76 2109.2,2897.31"/>
      <path class="fil2 str1" d="M11547.82 13471.04c0,0 0,2225.08 0,3523.08 1599.32,34.77 6489.85,34.77 10789.36,2143.95 4311.14,-2109.18 9201.65,-2109.18 10800.97,-2143.95 0,-1298 0,-3523.08 0,-3523.08l-21590.33 0z"/>
      <path class="fil2 str1" d="M12451.76 14131.57c0,0 0,1019.83 0,1923.76 2190.33,-278.08 7266.36,660.61 9931.79,2144.04 2653.91,-1483.43 7741.48,-2422.12 9931.79,-2144.04 0,-903.94 0,-1923.76 0,-1923.76l-19863.59 0z"/>
      <path class="fil3 str1" d="M20540.93 10933.01c451.97,463.59 509.87,579.48 1367.51,695.38"/>
      <path class="fil3 str1" d="M25176.51 9067.22c-57.91,857.57 -440.35,1321.16 -834.42,1680.37"/>
      <path class="fil2 str1" d="M12799.45 14525.63c0,0 0,660.53 0,1170.49 2468.49,-69.53 7196.75,822.8 9537.74,2155.57 2352.59,-1332.76 7080.93,-2225.1 9549.34,-2155.57 0,-509.96 0,-1170.49 0,-1170.49l-19087.07 0z"/>
      <path class="fil2 str1" d="M14074.22 17249.05c0,440.37 359.31,799.66 799.66,799.66 440.35,0 799.66,-359.29 799.66,-799.66l0 -3778.01c0,-440.37 -359.31,-799.66 -799.66,-799.66 -440.35,0 -799.66,359.29 -799.66,799.66l0 3778.01z"/>
      <path class="fil2 str1" d="M26938.02 17828.45c0,440.44 -359.23,799.66 -799.66,799.66 -440.37,0 -799.58,-359.21 -799.58,-799.66l0 -4357.41c0,-440.37 359.21,-799.66 799.58,-799.66 440.43,0 799.66,359.29 799.66,799.66l0 4357.41z"/>
      <path class="fil2 str1" d="M30611.75 17249.05c0,440.37 -359.29,799.66 -799.66,799.66 -440.35,0 -799.64,-359.29 -799.64,-799.66l0 -3778.01c0,-440.37 359.29,-799.66 799.64,-799.66 440.37,0 799.66,359.29 799.66,799.66l0 3778.01z"/>
      <g>
       <path class="fil0 str1" d="M15140.44 13749.19c0,544.65 0,3244.92 0,3244.92 -57.91,347.61 -92.76,486.74 -289.7,486.74l289.7 -3731.66z"/>
       <path class="fil3 str1" d="M15140.44 13749.19c0,544.65 0,3244.92 0,3244.92 -57.91,347.61 -92.76,486.74 -289.7,486.74"/>
      </g>
      <g>
       <path class="fil0 str1" d="M26451.28 13621.69c0,556.25 0,4067.73 0,4067.73 -57.91,359.29 -104.28,498.34 -289.7,498.34l289.7 -4566.07z"/>
       <path class="fil3 str1" d="M26451.28 13621.69c0,556.25 0,4067.73 0,4067.73 -57.91,359.29 -104.28,498.34 -289.7,498.34"/>
      </g>
      <g>
       <path class="fil0 str1" d="M30090.27 13749.19c0,544.65 0,3244.92 0,3244.92 -57.99,347.61 -104.36,486.74 -301.32,486.74l301.32 -3731.66z"/>
       <path class="fil3 str1" d="M30090.27 13749.19c0,544.65 0,3244.92 0,3244.92 -57.99,347.61 -104.36,486.74 -301.32,486.74"/>
      </g>
      <path class="fil3 str1" d="M22302.42 16403.02c266.55,0 475.19,-208.56 475.19,-463.5 0,-266.55 -208.64,-475.21 -475.19,-475.21 -254.93,0 -463.57,208.66 -463.57,475.21 0,254.93 208.64,463.5 463.57,463.5z"/>
      <path class="fil2 str1" d="M17747.97 17828.45c0,440.44 359.21,799.66 799.66,799.66 440.35,0 799.66,-359.21 799.66,-799.66l0 -4357.41c0,-440.37 -359.31,-799.66 -799.66,-799.66 -440.44,0 -799.66,359.29 -799.66,799.66l0 4357.41z"/>
      <g>
       <path class="fil0 str1" d="M18860.47 13621.69c0,556.25 0,4067.73 0,4067.73 -57.91,359.29 -92.68,498.34 -289.7,498.34l289.7 -4566.07z"/>
       <path class="fil3 str1" d="M18860.47 13621.69c0,556.25 0,4067.73 0,4067.73 -57.91,359.29 -92.68,498.34 -289.7,498.34"/>
      </g>
      <path class="fil2 str1" d="M16786.04 18987.41c811.26,-660.61 706.98,-880.79 521.56,-1089.36 -173.88,-208.64 -382.44,-312.92 -1158.95,336.07 -706.9,579.4 -706.9,869.19 -521.49,1077.75 173.88,208.64 475.19,220.17 1158.87,-324.46z"/>
      <path class="fil2 str1" d="M16762.9 20157.91c695.38,-788.04 544.71,-985.08 336.07,-1158.97 -208.56,-173.8 -440.35,-243.31 -1089.36,533.11 -591,695.38 -544.71,985.08 -336.07,1158.97 208.56,173.8 509.88,127.43 1089.36,-533.11z"/>
      <path class="fil2 str1" d="M17064.2 21073.37c544.73,-892.32 370.83,-1066.12 127.52,-1205.24 -231.8,-127.43 -463.59,-162.19 -973.55,706.98 -463.5,799.58 -359.21,1066.13 -127.43,1205.26 231.8,139.03 521.5,34.75 973.46,-707z"/>
      <path class="fil2 str1" d="M17655.22 21687.61c382.45,-973.46 173.89,-1112.5 -92.66,-1205.24 -254.95,-92.68 -486.74,-69.53 -834.42,869.17 -324.46,857.55 -173.8,1112.58 81.14,1205.24 254.93,92.76 521.49,-46.37 845.95,-869.17z"/>
      <path class="fil2 str1" d="M18396.96 22139.58c208.56,-1031.45 -23.22,-1124.12 -289.78,-1170.49 -266.55,-57.91 -498.26,0 -683.68,996.7 -162.27,903.94 34.77,1124.11 301.32,1170.49 266.46,46.29 498.26,-139.13 672.14,-996.7z"/>
      <path class="fil2 str1" d="M19196.62 22382.99c23.15,-1043.07 -220.26,-1100.98 -498.34,-1100.98 -266.55,0 -486.74,92.68 -486.74,1100.98 -11.6,915.47 220.18,1100.98 486.74,1100.98 278.08,0 475.12,-231.8 498.34,-1100.98z"/>
      <path class="fil2 str1" d="M20030.97 22452.5c-162.19,-1043.07 -405.6,-1054.59 -672.15,-1008.22 -278.08,46.29 -475.12,173.81 -301.32,1170.49 150.67,903.94 405.6,1054.61 683.77,1008.22 266.55,-46.37 417.2,-312.92 289.7,-1170.49z"/>
      <path class="fil2 str1" d="M20877 22406.13c-243.41,-1008.22 -498.34,-1008.22 -764.89,-938.71 -254.95,69.53 -440.37,220.18 -185.42,1193.64 231.79,892.41 498.34,1008.32 764.89,938.71 254.93,-69.52 393.98,-336.07 185.42,-1193.64z"/>
      <path class="fil2 str1" d="M21757.79 22464.12c-243.41,-1008.3 -498.34,-1008.3 -764.89,-938.78 -254.95,81.14 -440.37,220.26 -185.42,1193.72 231.79,892.34 498.34,1019.84 764.89,938.71 254.93,-69.52 393.98,-336.07 185.42,-1193.64z"/>
      <path class="fil2 str1" d="M22615.36 22522.04c-243.41,-1008.22 -498.36,-1008.22 -753.29,-927.09 -266.55,69.52 -451.97,208.56 -197.04,1193.64 231.8,880.79 498.36,1008.22 764.91,927.09 266.54,-69.53 393.98,-336.08 185.42,-1193.64z"/>
      <path class="fil2 str1" d="M23496.14 22603.17c-243.41,-1019.84 -498.34,-1008.22 -753.35,-938.71 -266.47,69.52 -451.97,220.18 -196.96,1193.64 231.79,892.32 498.34,1008.22 764.81,938.71 266.55,-69.53 394.06,-347.69 185.5,-1193.64z"/>
      <path class="fil2 str1" d="M24400.08 22765.44c-243.41,-1019.84 -498.34,-1008.32 -764.89,-938.78 -266.55,69.59 -440.35,220.26 -185.42,1193.72 231.79,880.72 498.34,1008.22 753.29,938.71 266.55,-69.53 405.58,-347.69 197.02,-1193.64z"/>
      <path class="fil2 str1" d="M25257.65 22950.86c-150.65,-1043.07 -405.6,-1054.61 -672.15,-1008.32 -266.55,46.39 -463.57,185.42 -289.78,1170.49 150.65,903.94 405.68,1054.61 672.23,1008.32 266.47,-46.39 428.75,-312.94 289.7,-1170.49z"/>
      <path class="fil2 str1" d="M26149.97 23530.26c-69.52,-1042.99 -324.45,-1077.75 -591,-1054.61 -278.17,23.24 -475.21,139.13 -394.07,1147.35 69.53,903.94 312.94,1077.75 579.49,1054.61 278.16,-23.24 451.97,-278.17 405.58,-1147.35z"/>
      <path class="fil2 str1" d="M26938.02 24272c197.02,-1031.45 -34.77,-1135.73 -301.32,-1182.11 -266.55,-46.37 -498.34,11.62 -672.15,1008.22 -162.27,903.94 23.15,1124.12 289.7,1170.49 266.55,46.39 509.96,-139.03 683.77,-996.6z"/>
      <path class="fil2 str1" d="M27378.45 25187.47c544.65,-903.94 359.23,-1066.12 127.43,-1205.24 -231.79,-139.05 -475.12,-162.19 -985.08,706.98 -451.97,788.05 -359.21,1066.13 -115.89,1205.26 231.79,139.05 521.56,34.77 973.53,-707z"/>
      <path class="fil2 str1" d="M27494.35 26334.81c811.18,-648.99 695.3,-869.17 521.49,-1077.74 -173.88,-220.26 -382.44,-324.54 -1158.95,324.46 -706.92,591 -706.92,880.78 -533.03,1089.36 173.8,208.56 486.74,220.17 1170.49,-336.08z"/>
      <path class="fil2 str1" d="M27181.43 27528.45c985.08,-336.07 961.84,-591.02 869.17,-845.95 -92.76,-255.01 -254.93,-428.82 -1205.26,-81.14 -869.17,312.92 -961.93,579.48 -869.17,834.42 92.66,266.55 370.83,370.83 1205.26,92.66z"/>
      <path class="fil2 str1" d="M26451.28 28559.9c1031.45,-150.65 1043.07,-405.58 996.7,-672.14 -46.39,-266.55 -173.89,-463.59 -1170.49,-301.32 -903.94,162.19 -1054.61,417.2 -1008.22,683.76 57.9,266.55 312.84,428.75 1182.02,289.7z"/>
      <path class="fil2 str1" d="M25419.92 29347.95c1042.99,-69.53 1089.36,-312.94 1054.59,-591.02 -23.22,-266.55 -127.51,-475.19 -1135.73,-394.06 -915.56,81.14 -1077.83,324.54 -1054.59,591 23.15,266.55 266.55,452.06 1135.73,394.07z"/>
      <path class="fil2 str1" d="M24214.58 30054.85c764.89,-23.15 811.28,-243.33 811.28,-486.74 0,-243.31 -69.53,-451.97 -811.28,-486.72l0 973.46z"/>
      <path class="fil2 str1" d="M18176.8 31967.09c1042.97,-69.59 1077.74,-324.54 1054.59,-591.1 -23.22,-266.55 -127.51,-475.12 -1135.73,-393.98 -915.56,69.53 -1089.36,312.84 -1054.61,591.02 23.15,266.55 266.55,451.97 1135.74,394.06z"/>
      <path class="fil2 str1" d="M17330.75 32720.38c1042.99,-69.61 1077.75,-324.54 1054.61,-591.1 -23.15,-278.08 -139.05,-475.12 -1135.74,-393.98 -915.54,69.52 -1089.34,312.84 -1066.2,579.4 23.22,278.17 278.16,451.97 1147.33,405.68z"/>
      <path class="fil2 str1" d="M16704.99 33682.22c1019.84,-254.93 1008.22,-498.34 938.71,-764.89 -69.53,-266.55 -220.18,-451.97 -1193.72,-185.42 -892.34,231.8 -1008.22,498.34 -938.71,753.29 69.52,266.55 347.69,405.68 1193.72,197.02z"/>
      <path class="fil2 str1" d="M16484.72 34586.16c961.93,-417.2 915.56,-672.14 799.66,-915.54 -115.9,-243.33 -289.7,-405.6 -1216.86,23.22 -822.8,382.45 -903.94,660.53 -788.04,915.56 115.89,243.31 405.68,324.45 1205.24,-23.24z"/>
      <path class="fil2 str1" d="M16565.86 35513.34c869.17,-579.49 776.51,-811.28 614.24,-1031.46 -150.65,-220.17 -359.29,-347.69 -1182.1,231.8 -753.29,521.49 -776.43,811.18 -625.78,1031.37 162.27,220.26 463.59,255.01 1193.64,-231.71z"/>
      <path class="fil2 str1" d="M16786.04 36463.57c764.89,-730.06 625.85,-938.71 440.43,-1135.65 -197.02,-197.04 -417.2,-278.17 -1135.73,428.73 -648.99,649.01 -625.85,938.71 -428.82,1135.74 197.04,185.42 498.36,173.8 1124.12,-428.82z"/>
      <path class="fil2 str1" d="M17261.24 37193.69c614.24,-846.03 451.97,-1031.45 220.18,-1193.64 -220.18,-150.65 -451.97,-197.02 -1031.45,625.78 -533.11,741.67 -451.97,1031.45 -231.8,1182.1 220.26,162.19 521.58,81.14 1043.07,-614.24z"/>
      <path class="fil2 str1" d="M17875.48 37726.8c463.5,-938.69 266.47,-1089.36 11.53,-1205.24 -243.31,-115.9 -475.12,-127.52 -915.54,788.04 -382.38,834.42 -266.47,1100.98 -11.54,1216.86 243.33,104.28 521.5,-11.6 915.56,-799.66z"/>
      <path class="fil2 str1" d="M18605.53 38144.02c289.7,-996.7 69.53,-1112.6 -197.02,-1193.64 -266.55,-69.61 -498.26,-34.84 -764.81,938.69 -231.8,892.34 -69.53,1124.12 196.94,1193.64 266.55,81.14 521.58,-92.74 764.89,-938.69z"/>
      <path class="fil2 str1" d="M19335.67 38642.36c115.9,-1031.45 -127.51,-1112.58 -394.06,-1135.73 -278.09,-23.24 -498.36,46.37 -591.02,1054.59 -81.14,915.54 127.51,1124.11 393.98,1147.25 278.17,23.24 498.34,-196.94 591.1,-1066.12z"/>
      <path class="fil2 str1" d="M24087.15 9287.41c173.8,-11.62 243.33,-115.9 312.92,-231.79 139.05,-231.8 162.19,-475.12 -706.98,-985.08 -788.04,-451.97 -1066.13,-359.21 -1205.26,-115.9 -92.66,150.67 -81.14,324.54 150.67,556.25 822.8,57.99 1274.76,405.68 1448.65,776.51z"/>
      <path class="fil2 str1" d="M24284.19 8719.54c788.04,683.77 985.08,533.11 1158.87,324.46 173.8,-208.56 243.33,-428.75 -521.49,-1089.36 -707,-591 -996.7,-533.11 -1170.49,-324.45 -173.89,208.56 -127.52,509.87 533.11,1089.34z"/>
      <path class="fil2 str1" d="M25350.31 8789.07c660.63,811.26 880.79,706.9 1089.36,533.11 208.66,-185.42 312.94,-394.07 -324.45,-1170.49 -591.02,-706.9 -880.79,-695.38 -1089.36,-521.49 -208.56,173.8 -220.18,475.12 324.45,1158.87z"/>
      <path class="fil2 str1" d="M26312.24 9252.64c417.22,961.85 660.53,915.56 903.94,799.66 254.95,-115.89 405.6,-289.78 -11.6,-1216.86 -382.45,-822.8 -672.15,-903.94 -915.56,-788.04 -243.33,115.89 -336.07,405.58 23.22,1205.24z"/>
      <path class="fil2 str1" d="M27262.56 9890.03c150.65,1042.99 405.58,1054.61 672.14,1008.22 266.55,-46.37 463.59,-185.42 301.32,-1182.1 -162.27,-892.34 -417.2,-1042.99 -683.76,-996.62 -266.55,46.39 -428.82,312.94 -289.7,1170.49z"/>
      <path class="fil2 str1" d="M27865.18 10898.25c-301.32,1008.22 -81.14,1124.12 185.42,1193.73 266.55,69.52 498.34,34.75 764.89,-938.78 243.33,-880.72 69.52,-1124.12 -197.02,-1193.64 -255.03,-69.53 -509.96,104.28 -753.29,938.69z"/>
      <path class="fil2 str1" d="M28062.13 12103.51c-625.77,846.03 -451.97,1031.45 -231.71,1182.11 220.18,162.27 451.97,208.56 1042.99,-614.24 521.49,-753.29 451.97,-1031.46 220.18,-1193.64 -220.18,-150.67 -509.88,-81.14 -1031.46,625.77z"/>
      <path class="fil2 str1" d="M28861.78 13471.04c46.39,-150.67 0,-266.55 -81.14,-359.31 -173.8,-208.56 -475.12,-208.56 -1158.87,336.16 -11.62,0 -23.15,11.53 -34.77,23.15l1274.77 0z"/>
     </g>
    </g>
   </g>
  </g>
 </g>
</svg>
